<svg version="1.1" id="Layer_1" xmlns="http://www.w3.org/2000/svg" xmlns:xlink="http://www.w3.org/1999/xlink" x="0px" y="0px"
	 width="100%" viewBox="0 0 2400 2298" enable-background="new 0 0 2400 2298" xml:space="preserve">
<path fill="#000000" opacity="1.000000" stroke="none" 
	d="
M2.000000,866.000000 
	C2.000000,577.333313 2.000000,289.666656 2.000000,2.000000 
	C802.000000,2.000000 1602.000000,2.000000 2402.000000,2.000000 
	C2402.000000,768.000000 2402.000000,1534.000000 2402.000000,2300.000000 
	C1602.000000,2300.000000 802.000000,2300.000000 2.000000,2300.000000 
	C2.000000,1822.333374 2.000000,1344.666626 2.000000,866.000000 
z"/>
<path fill="#EBEBEB" opacity="1.000000" stroke="none" 
	d="
M1853.875854,280.051697 
	C1857.893066,281.122833 1859.927368,284.298767 1862.447876,286.886536 
	C1970.115967,397.423126 2077.765381,507.978058 2185.352295,618.593506 
	C2194.276855,627.769470 2194.519287,624.444397 2188.524170,636.887634 
	C2134.260742,749.518005 2065.198730,852.332031 1982.991211,946.397400 
	C1874.468384,1070.573975 1748.253052,1173.802368 1609.159302,1261.744995 
	C1541.838013,1304.309082 1472.101807,1342.533203 1400.589478,1377.553711 
	C1399.692993,1377.992920 1398.636597,1378.202393 1397.871948,1378.797852 
	C1393.123413,1382.495605 1389.405029,1381.148438 1386.116821,1376.677368 
	C1385.140747,1375.350098 1383.811035,1374.283081 1382.349487,1372.499268 
	C1381.765137,1370.847046 1382.001587,1369.682617 1382.953979,1369.390991 
	C1417.949219,1358.680176 1449.227905,1339.846924 1481.310669,1323.111694 
	C1534.496216,1295.368652 1585.739990,1264.083496 1635.464844,1230.500244 
	C1701.227295,1186.085693 1764.619995,1138.534668 1824.006104,1085.740356 
	C1854.381592,1058.736450 1884.633911,1031.601807 1912.875122,1002.383911 
	C1996.115356,916.265076 2069.511719,822.630310 2128.125488,717.854004 
	C2131.539307,711.751526 2134.532959,705.414185 2139.172607,698.246033 
	C2131.371826,703.777344 2125.313965,709.058472 2119.697998,714.889648 
	C2085.251953,750.654785 2048.950684,784.520874 2012.345703,818.010315 
	C1900.887695,919.981934 1785.168457,1016.690674 1658.713623,1099.859131 
	C1601.019165,1137.804443 1541.445679,1172.459595 1478.287354,1200.661255 
	C1477.374878,1201.068726 1476.496704,1201.556885 1475.569702,1201.928711 
	C1472.461060,1203.175537 1469.126465,1204.824463 1466.191772,1202.138184 
	C1463.548340,1199.718750 1465.006470,1196.503662 1465.806030,1193.673950 
	C1469.526489,1180.507202 1472.327393,1167.151733 1474.468994,1153.640869 
	C1479.603516,1121.249146 1478.707397,1089.409790 1467.835449,1058.016602 
	C1460.301392,1036.261475 1447.197998,1018.675598 1430.208618,1002.662842 
	C1413.778809,986.055725 1397.803345,970.014771 1381.886353,953.916077 
	C1375.049316,947.000916 1376.025635,947.870239 1369.700317,954.081543 
	C1304.805054,1017.808655 1239.912598,1081.538452 1175.015503,1145.263794 
	C1172.443481,1147.789429 1169.834351,1150.277222 1167.442505,1152.589233 
	C1163.883545,1151.093872 1162.136230,1148.550293 1160.060303,1146.438110 
	C1107.513794,1092.977417 1054.970093,1039.514038 1002.510681,985.968140 
	C995.692627,979.008911 995.321045,981.360840 1000.163452,971.862610 
	C1066.912109,840.936584 1144.806519,717.198669 1238.336060,603.604675 
	C1354.158569,462.935333 1488.587891,343.863098 1646.816895,252.516525 
	C1683.723877,231.209946 1721.578491,211.723114 1760.396729,194.132584 
	C1769.722534,189.906570 1767.695557,189.464478 1774.633667,196.588669 
	C1801.131714,223.797119 1827.578247,251.055939 1854.244751,278.937073 
	C1848.649170,283.759125 1845.924561,278.245850 1842.956665,275.435669 
	C1819.809692,253.518219 1792.751221,239.563889 1761.329712,233.866409 
	C1752.877930,232.333878 1744.911133,232.639984 1736.780151,235.438538 
	C1684.821411,253.321869 1636.392090,278.364563 1590.124878,307.735840 
	C1528.951538,346.569763 1472.063965,390.950623 1418.536377,439.792114 
	C1390.975342,464.940521 1363.269897,489.950714 1337.769409,517.160706 
	C1302.495117,554.799561 1266.937378,592.262268 1236.602417,634.199829 
	C1235.626099,635.549622 1234.564453,636.845703 1233.707031,638.271362 
	C1231.685913,641.632324 1228.272949,644.895935 1230.262207,649.144836 
	C1232.493286,653.910034 1237.479004,653.170898 1241.720581,653.361145 
	C1260.700439,654.212341 1278.786377,649.279419 1296.611572,643.864563 
	C1345.792358,628.924988 1393.076294,608.963806 1439.931519,588.033386 
	C1483.114380,568.743347 1525.959595,548.674011 1567.999634,527.002869 
	C1668.402832,475.246521 1767.418823,421.032318 1861.613892,358.444946 
	C1878.679077,347.106110 1880.429932,342.220978 1873.679199,322.678711 
	C1869.963135,311.921509 1864.484619,302.034424 1857.566650,292.920349 
	C1854.882324,289.383972 1850.772949,286.015045 1853.875854,280.051697 
z"/>
<path fill="#E53900" opacity="1.000000" stroke="none" 
	d="
M470.283051,1815.621338 
	C455.852997,1823.027466 443.517700,1832.688477 430.498871,1841.277100 
	C378.458771,1875.608398 324.661011,1906.862915 268.319885,1933.520508 
	C221.361618,1955.738403 173.069687,1974.610840 122.373177,1986.772095 
	C103.624657,1991.269531 84.722130,1994.890991 65.652390,1997.652222 
	C62.399372,1998.123291 59.068584,1998.823730 54.962822,1997.726318 
	C57.560520,1994.591553 60.992645,1993.673218 64.058693,1992.409790 
	C116.493385,1970.802612 166.674820,1944.819946 214.687851,1914.671021 
	C265.246704,1882.923340 312.517517,1846.882446 356.810730,1806.795288 
	C417.279144,1752.069092 470.201141,1690.727783 518.559875,1625.261230 
	C549.425964,1583.475708 578.036133,1540.117065 607.736450,1497.518921 
	C625.095764,1472.621216 644.592285,1449.536255 665.179932,1427.287354 
	C678.520996,1412.869751 691.821716,1398.415161 705.910461,1384.731689 
	C746.541992,1345.269043 789.410828,1308.513916 836.143127,1276.325562 
	C869.453613,1253.381714 904.193726,1233.316040 942.378601,1219.598633 
	C945.820312,1218.362427 949.450745,1217.505005 952.682434,1215.860474 
	C959.938416,1212.167969 965.385437,1214.117676 970.080017,1221.142212 
	C968.914001,1226.258179 964.756592,1227.201294 961.101074,1228.569580 
	C915.590820,1245.604858 878.045654,1274.371948 843.042725,1307.313843 
	C783.472351,1363.376465 735.792175,1429.235352 686.830750,1494.135620 
	C645.102722,1549.447632 601.853333,1603.544067 555.669678,1655.288818 
	C530.577942,1683.401978 504.962860,1711.003784 477.467407,1736.673096 
	C447.070648,1765.050903 416.450317,1793.405640 379.635559,1814.929077 
	C378.418610,1816.067749 377.361115,1816.138550 376.548187,1816.645264 
	C377.455536,1816.742676 377.934204,1815.991943 379.168579,1815.268799 
	C428.892975,1792.878906 474.254883,1764.295776 518.484253,1733.855591 
	C565.432312,1701.544189 611.028931,1667.359985 656.500305,1633.014038 
	C660.459290,1630.024048 664.085510,1626.450073 669.717407,1624.872070 
	C670.900574,1625.017090 671.356995,1625.174194 672.297729,1625.866699 
	C674.244751,1631.541260 671.016052,1635.407959 668.953552,1639.433838 
	C643.459778,1689.196045 611.487976,1734.663574 576.358582,1777.974731 
	C542.984009,1819.122437 507.246643,1858.138184 470.573547,1896.391846 
	C449.360260,1918.519287 428.330627,1940.841797 406.200897,1962.012817 
	C377.329224,1989.633545 348.586853,2017.394531 319.533783,2044.826904 
	C315.429291,2048.702393 310.880371,2052.088867 306.349243,2055.461914 
	C342.522552,2028.300537 377.907959,2000.115112 413.163422,1971.791260 
	C451.079254,1941.330078 488.975555,1910.833008 526.339905,1879.687866 
	C579.047913,1835.752808 631.921387,1792.019165 684.242859,1747.617920 
	C719.282410,1717.882568 753.921448,1687.683716 788.950317,1657.937012 
	C801.882385,1646.954956 814.691223,1635.788452 827.207092,1624.311035 
	C829.653320,1622.068115 831.878540,1619.499268 836.106567,1618.888672 
	C837.263000,1619.123535 837.700623,1619.320679 838.530151,1620.122070 
	C839.799622,1624.935913 836.835022,1627.567383 834.754517,1630.460449 
	C790.406067,1692.128662 749.038757,1755.817871 707.065308,1819.090576 
	C687.183533,1849.061279 667.705139,1879.304199 648.030334,1909.414673 
	C645.674133,1913.020508 643.505005,1916.790283 640.346802,1919.819092 
	C665.704041,1890.490479 692.468506,1862.503540 720.085876,1835.302490 
	C768.834290,1787.288940 821.944824,1744.562500 877.078796,1704.185303 
	C918.692566,1673.709595 961.282043,1644.479004 997.951355,1607.695068 
	C1029.009766,1576.539673 1054.567749,1541.424561 1076.372681,1503.423828 
	C1094.465698,1471.892090 1109.544556,1438.895874 1123.676392,1405.433960 
	C1126.254639,1399.329346 1126.412231,1392.304810 1131.479248,1386.610596 
	C1140.836792,1393.503052 1148.029419,1402.311768 1156.302979,1410.007202 
	C1159.611450,1413.084717 1159.080444,1416.225342 1158.140259,1419.945068 
	C1153.368896,1438.822876 1145.098267,1456.162598 1135.377197,1472.910278 
	C1104.278687,1526.487549 1071.092529,1578.697021 1033.401855,1627.925781 
	C1012.567627,1655.137695 990.243042,1681.073486 966.700134,1706.016846 
	C922.948608,1752.370361 874.068665,1792.844360 824.040649,1832.055176 
	C763.056091,1879.853271 701.451355,1926.885742 643.164612,1978.023682 
	C617.167114,2000.832520 591.640015,2024.148560 566.475952,2047.889282 
	C539.570251,2073.273193 513.626099,2099.609131 487.705780,2125.954590 
	C457.855408,2156.294189 428.908020,2187.520752 400.907196,2219.600830 
	C398.500305,2222.358398 395.967651,2225.006348 392.890747,2228.004883 
	C391.947296,2228.207520 391.606415,2228.110352 391.067749,2227.519531 
	C401.996521,2203.563477 415.087860,2181.165039 427.903198,2158.616211 
	C457.852356,2105.921387 490.367981,2054.809082 523.973145,2004.407104 
	C563.860657,1944.582642 605.414978,1885.905396 647.543701,1827.635986 
	C652.772644,1820.403809 658.628479,1813.554810 662.825439,1805.624878 
	C660.224304,1803.120605 659.106384,1805.693115 657.833130,1806.797607 
	C594.795532,1861.485962 531.210327,1915.529785 466.782471,1968.572876 
	C405.919159,2018.681030 344.511414,2068.105225 281.760071,2115.854736 
	C237.244873,2149.727295 192.111343,2182.711426 145.410675,2213.505859 
	C125.416870,2226.689941 105.173378,2239.514160 82.938148,2250.211426 
	C81.819115,2250.257568 81.418831,2250.254395 81.156967,2249.667236 
	C90.114029,2239.097168 100.761444,2231.080322 110.658531,2222.292480 
	C147.537460,2189.546143 182.701859,2155.010986 216.833267,2119.490479 
	C282.069244,2051.599365 343.569427,1980.380737 402.236908,1906.742188 
	C425.453461,1877.600952 448.458923,1848.280762 470.570831,1817.458252 
	C470.853607,1816.420044 470.877563,1816.008057 470.283051,1815.621338 
z"/>
<path fill="#CCCCCC" opacity="1.000000" stroke="none" 
	d="
M1429.458618,1002.710327 
	C1438.341675,1003.906128 1442.779541,1011.206177 1447.652344,1017.081177 
	C1465.272583,1038.325439 1474.358154,1063.231323 1478.196411,1090.529419 
	C1483.306885,1126.876099 1477.099121,1161.856201 1467.573975,1196.615967 
	C1467.232422,1197.862671 1466.928589,1199.119629 1466.649292,1200.207642 
	C1469.047607,1202.841919 1471.125732,1201.241333 1473.179443,1200.316528 
	C1505.357056,1185.828613 1536.683228,1169.715820 1567.475708,1152.447388 
	C1606.947632,1130.311523 1645.132080,1106.186890 1682.575195,1080.828491 
	C1719.149902,1056.058228 1754.809937,1030.013550 1789.788208,1003.059570 
	C1815.798584,983.016052 1841.665039,962.747986 1866.878784,941.720459 
	C1886.750122,925.148438 1906.618896,908.548767 1925.967041,891.326416 
	C1950.768799,869.249878 1976.089600,847.781067 2000.338257,825.053650 
	C2018.762695,807.784973 2037.160400,790.454224 2055.889893,773.531799 
	C2079.639648,752.073181 2101.425293,728.684265 2124.552246,706.639648 
	C2129.988281,701.458069 2136.037109,696.919373 2141.895264,692.008484 
	C2144.604492,695.557312 2142.142334,697.722046 2141.014893,699.749695 
	C2128.417236,722.405396 2115.699463,744.997437 2101.984375,767.003113 
	C2080.885010,800.856995 2058.487793,833.833374 2034.208374,865.491333 
	C2018.462158,886.022949 2002.418579,906.305786 1985.443359,925.881104 
	C1967.153687,946.972107 1948.410889,967.603821 1929.489014,988.124329 
	C1915.256104,1003.559814 1900.907715,1018.902893 1885.481201,1033.005249 
	C1865.878906,1050.924683 1847.004639,1069.627441 1826.713013,1086.855591 
	C1810.530273,1100.595093 1794.653687,1114.776123 1778.238647,1128.226074 
	C1756.695557,1145.877930 1734.497925,1162.748901 1712.103760,1179.356445 
	C1683.811768,1200.337769 1655.168945,1220.815918 1625.660278,1240.007690 
	C1592.514893,1261.564453 1558.844238,1282.278809 1524.562744,1302.054688 
	C1486.457520,1324.036255 1447.072021,1343.431274 1407.781372,1363.067139 
	C1402.437012,1365.738037 1396.590210,1367.476318 1391.457520,1370.471436 
	C1388.307495,1372.309326 1385.632446,1369.792725 1382.463623,1371.422852 
	C1365.739746,1355.480835 1349.378296,1339.104614 1333.119263,1322.627563 
	C1312.873657,1302.110596 1292.712158,1281.510620 1272.294434,1260.300781 
	C1270.557007,1257.878662 1269.622192,1255.702026 1268.036011,1253.955933 
	C1264.842651,1250.440430 1264.447876,1247.370728 1269.990356,1246.151978 
	C1276.051392,1244.819214 1277.244873,1239.786865 1278.743164,1235.064941 
	C1287.010864,1209.007812 1288.614502,1183.384888 1273.270142,1158.208984 
	C1302.445801,1128.493530 1331.753418,1099.525635 1361.068359,1070.565430 
	C1383.769653,1048.138794 1406.480225,1025.721802 1429.458618,1002.710327 
z"/>
<path fill="#FE0000" opacity="1.000000" stroke="none" 
	d="
M2288.566895,82.775528 
	C2315.937256,82.720131 2310.540283,80.978134 2309.170898,104.593941 
	C2307.358887,135.830795 2304.465088,167.003738 2302.170654,198.214081 
	C2299.266113,237.728027 2296.490723,277.251526 2293.674561,316.771942 
	C2293.243408,322.823700 2291.076904,328.465912 2289.447266,334.204132 
	C2270.905518,399.496613 2252.274414,464.763947 2233.574463,530.011353 
	C2227.881836,549.874023 2219.260986,568.600220 2211.174072,587.596497 
	C2204.007080,583.603943 1811.588501,184.529587 1805.387085,174.982758 
	C1817.749756,168.357269 1831.344849,165.088226 1845.034180,159.779251 
	C1870.206543,153.260696 1895.339844,153.768188 1920.110840,151.407242 
	C1979.411621,145.755203 2038.633301,139.458221 2097.711182,131.881073 
	C2148.887695,125.317322 2200.051025,118.572960 2250.580811,107.821594 
	C2262.648926,105.253845 2274.637939,102.395622 2286.193359,98.103996 
	C2297.833008,93.781029 2298.060791,91.752457 2288.566895,82.775528 
z"/>
<path fill="#E78C00" opacity="1.000000" stroke="none" 
	d="
M378.771179,1816.010742 
	C379.352325,1812.675049 382.406097,1811.225098 385.153534,1809.346802 
	C412.643860,1790.553101 437.983368,1769.157959 462.663452,1746.812744 
	C482.683563,1728.686523 501.875519,1709.752563 520.386292,1690.188965 
	C540.693237,1668.727173 560.432861,1646.709473 579.564697,1624.134888 
	C594.812988,1606.142944 609.912598,1588.024048 624.888916,1569.816650 
	C640.285400,1551.098267 655.006104,1531.812256 669.687683,1512.519775 
	C699.661255,1473.133057 729.107544,1433.340942 759.423462,1394.221436 
	C769.362976,1381.395386 780.527588,1369.443115 791.356506,1357.276855 
	C806.871887,1339.845337 823.452148,1323.505005 839.959900,1307.073120 
	C861.707886,1285.425537 885.418457,1266.111816 911.467712,1249.916138 
	C927.009460,1240.253052 943.730591,1232.669312 960.821411,1226.015869 
	C963.605530,1224.932129 966.304993,1223.630981 969.717529,1222.109375 
	C976.153503,1225.981934 980.487671,1231.653320 985.872925,1237.108643 
	C979.121826,1245.220581 969.257385,1248.111084 960.750854,1253.140381 
	C940.367310,1265.191284 919.660400,1276.765747 902.284180,1293.070068 
	C884.453979,1309.800415 870.851379,1330.095703 856.565369,1349.739624 
	C814.835266,1407.120850 774.612061,1465.650024 728.304749,1519.551636 
	C705.714905,1545.846313 682.050537,1571.150269 653.180176,1590.896118 
	C649.062622,1593.712280 644.911133,1596.480591 640.152527,1598.108643 
	C658.411011,1590.770386 675.690002,1581.582275 692.239136,1570.896973 
	C740.460388,1539.762207 785.451782,1504.267212 830.490723,1468.831299 
	C833.371765,1466.564453 836.044800,1464.023682 840.363770,1462.799072 
	C841.529236,1462.682739 842.000061,1462.702271 843.137878,1462.954346 
	C845.013245,1464.073853 845.588684,1465.306519 845.700378,1467.456665 
	C836.050049,1477.705444 826.456665,1487.260742 816.859314,1496.812134 
	C815.216492,1498.447144 813.549805,1500.058228 811.906982,1501.693359 
	C805.690552,1507.881592 805.692505,1507.883545 811.981934,1515.188232 
	C813.603699,1519.925903 810.982361,1522.817139 809.015015,1525.814331 
	C768.471008,1587.581787 725.266724,1647.374634 676.924438,1703.338013 
	C657.779663,1725.500977 636.981873,1746.066650 615.289307,1766.693604 
	C613.629028,1768.487549 612.043579,1769.153809 609.912476,1770.061768 
	C607.927917,1770.919312 606.767578,1771.938599 605.125427,1773.219360 
	C604.003540,1773.763428 604.111816,1774.342285 603.957214,1774.577759 
	C603.229858,1775.685059 605.457947,1774.568848 604.150940,1774.832520 
	C604.144836,1774.833740 604.060852,1774.578491 604.349304,1773.746826 
	C605.821777,1772.907715 606.730652,1772.219116 608.156128,1771.220581 
	C610.442261,1769.810059 612.539978,1769.297607 614.605713,1767.403809 
	C639.124756,1749.171509 663.328186,1731.618042 686.160461,1712.280762 
	C710.736450,1691.466919 735.136963,1670.463257 758.914856,1648.724365 
	C789.545410,1620.719849 820.517639,1593.090332 849.873474,1563.724487 
	C851.285522,1562.311890 852.828003,1561.042236 855.447144,1560.260498 
	C859.705505,1563.323608 861.882019,1560.817261 864.326477,1558.399780 
	C876.464844,1546.395386 888.687622,1534.476562 901.524170,1522.335815 
	C905.269226,1526.193359 902.778931,1529.827271 901.072632,1533.296021 
	C887.241272,1561.412720 875.652649,1590.550537 862.192871,1618.824829 
	C844.530762,1655.926636 823.265808,1690.926880 799.225769,1724.356201 
	C846.642212,1679.484497 898.404053,1639.723999 948.498901,1597.990479 
	C1011.512451,1545.494385 1062.319946,1484.041992 1091.279053,1406.194824 
	C1095.840698,1393.932251 1099.219238,1381.471924 1101.304077,1368.605469 
	C1101.822876,1365.403076 1101.282715,1361.789307 1105.334717,1359.792725 
	C1115.331299,1367.490479 1122.959717,1376.717041 1131.800293,1385.642212 
	C1128.117310,1403.930298 1120.071899,1420.028320 1112.806030,1436.436035 
	C1103.093384,1458.368896 1092.411865,1479.802856 1080.654175,1500.716309 
	C1064.152466,1530.068604 1045.465332,1557.846069 1023.687012,1583.614868 
	C1012.465759,1596.892212 1000.214417,1609.088745 987.737427,1621.061157 
	C966.836243,1641.116943 943.685059,1658.498535 920.445740,1675.713745 
	C891.867798,1696.883789 862.839661,1717.460083 834.607422,1739.078247 
	C812.457153,1756.039062 791.205322,1774.148315 770.085510,1792.431152 
	C739.313843,1819.069214 710.689819,1847.858643 682.398010,1876.991699 
	C667.360657,1892.476318 653.528564,1909.131226 639.146667,1925.252686 
	C638.274292,1926.230591 637.503784,1927.411377 635.826965,1927.233032 
	C633.346802,1925.289062 635.611572,1923.861084 636.543152,1922.439209 
	C654.962036,1894.332397 673.435974,1866.261841 691.863647,1838.160889 
	C715.215759,1802.550537 738.145569,1766.655518 761.978821,1731.370483 
	C786.546753,1694.997925 810.967834,1658.504395 837.146667,1623.242920 
	C837.528137,1622.729126 837.653076,1622.024902 837.959473,1620.712891 
	C838.021301,1620.016235 838.551819,1619.472900 838.817383,1619.201538 
	C839.082947,1618.930176 839.617065,1618.390137 839.344238,1618.654541 
	C839.071472,1618.919067 838.524414,1619.446533 838.253479,1619.712891 
	C835.833862,1619.961914 834.238098,1621.067139 832.699524,1622.429321 
	C814.784851,1638.290283 796.979736,1654.278564 778.887085,1669.934204 
	C757.287720,1688.624756 735.415161,1706.999268 713.702698,1725.559448 
	C694.004333,1742.397827 674.464172,1759.422729 654.664551,1776.140747 
	C636.903931,1791.137207 618.862244,1805.800415 600.986816,1820.661499 
	C583.617004,1835.102295 566.330322,1849.643066 548.953369,1864.075317 
	C528.254456,1881.266357 507.582031,1898.491089 486.742279,1915.510376 
	C467.707520,1931.055420 448.500031,1946.390015 429.305267,1961.738037 
	C401.805908,1983.726440 374.303619,2005.712036 346.692993,2027.560181 
	C333.149323,2038.277222 319.356873,2048.679932 305.683929,2059.233643 
	C304.401459,2060.223633 303.305725,2061.588379 300.411865,2060.873779 
	C301.590363,2055.665771 305.893646,2052.807617 309.433899,2050.102051 
	C315.568634,2045.413940 320.710632,2039.764160 326.374817,2034.634277 
	C347.358459,2015.630859 366.813751,1995.011230 387.655121,1975.905029 
	C411.003937,1954.500366 433.027496,1931.811768 455.255219,1909.325806 
	C475.592224,1888.752686 495.288696,1867.520264 514.708984,1846.072754 
	C551.525635,1805.412476 586.832886,1763.471924 618.263489,1718.445435 
	C636.935852,1691.696045 653.996521,1663.919312 668.613953,1634.704834 
	C669.801575,1632.331055 670.796753,1629.861328 671.946960,1626.725342 
	C670.272766,1625.976807 668.815735,1626.625488 667.431946,1627.667603 
	C640.355713,1648.057739 613.466309,1668.703613 586.129578,1688.738892 
	C539.456787,1722.946045 492.164368,1756.288086 442.259705,1785.688843 
	C423.916168,1796.495605 405.127747,1806.589233 385.207550,1814.332153 
	C383.371521,1815.045776 381.413849,1815.446411 378.771179,1816.010742 
z"/>
<path fill="#FD0000" opacity="1.000000" stroke="none" 
	d="
M590.647705,1078.264404 
	C589.973572,1075.835938 591.486023,1074.380371 592.632812,1072.800049 
	C639.213806,1008.611328 688.224426,946.388245 742.745056,888.687317 
	C785.368713,843.577393 830.590332,801.358154 882.185181,766.476379 
	C916.840515,743.046875 953.338989,723.365601 994.333069,713.295349 
	C1023.236816,706.195007 1052.155518,704.696228 1080.976318,713.907654 
	C1087.657715,716.043091 1094.062988,718.800049 1100.153198,722.266968 
	C1108.835083,727.209167 1108.856812,727.259888 1103.451416,735.329407 
	C1087.331177,759.394043 1071.806519,783.837891 1056.729614,808.567505 
	C1052.918213,814.819275 1049.146973,821.095459 1044.831177,827.784607 
	C1042.333862,829.305786 1040.340698,828.818970 1038.555786,827.934753 
	C1008.236755,812.913513 977.560364,817.379272 947.089417,826.842834 
	C910.896667,838.083496 877.829163,856.030212 845.778687,875.942688 
	C784.486938,914.022339 728.514343,959.105774 674.173340,1006.336121 
	C656.370117,1021.809753 638.417969,1037.113647 620.586548,1053.659424 
	C611.042725,1062.972290 601.363647,1070.994385 590.647705,1078.264404 
z"/>
<path fill="#E6E000" opacity="1.000000" stroke="none" 
	d="
M1105.790039,1359.334961 
	C1102.261963,1364.448608 1103.773315,1370.213623 1102.887939,1375.262207 
	C1099.687012,1393.516479 1092.756226,1410.409546 1085.312744,1427.075684 
	C1070.615723,1459.982544 1052.991455,1491.240112 1030.274536,1519.398315 
	C1024.436035,1526.635376 1018.588013,1533.904541 1012.230713,1540.676758 
	C981.881531,1573.005859 948.447754,1601.881104 913.943542,1629.703125 
	C886.795898,1651.593140 859.353333,1673.200928 833.767944,1696.996094 
	C822.086853,1707.859985 810.044495,1718.336182 798.122681,1728.939697 
	C796.762939,1730.149170 795.642944,1732.310059 792.679199,1730.781372 
	C792.405518,1727.247192 795.308228,1724.958130 797.087891,1722.544922 
	C820.265930,1691.115112 840.378784,1657.799316 857.424194,1622.726440 
	C868.467773,1600.002930 878.214722,1576.646606 888.423035,1553.520996 
	C892.852600,1543.486450 898.939819,1534.219482 902.178894,1522.895020 
	C902.167725,1522.144165 902.096497,1522.099487 902.124878,1522.111938 
	C902.438599,1521.752930 902.723999,1521.381592 903.543945,1520.554565 
	C906.531555,1517.409180 908.862732,1514.595459 911.455444,1512.048096 
	C967.695435,1456.794922 1023.960083,1401.566895 1080.244873,1346.359253 
	C1082.356079,1344.288574 1084.180786,1341.832764 1087.535156,1340.413208 
	C1093.444580,1346.418701 1099.493896,1352.566284 1105.790039,1359.334961 
z"/>
<path fill="#FD0000" opacity="1.000000" stroke="none" 
	d="
M1287.757690,1784.170044 
	C1297.219727,1770.434692 1308.510010,1758.670654 1318.989136,1746.226562 
	C1369.593750,1686.132812 1418.530151,1624.784912 1460.908691,1558.480713 
	C1474.171143,1537.730713 1486.464600,1516.419800 1497.146484,1494.210449 
	C1509.464111,1468.600098 1519.324341,1442.240723 1521.665283,1412.757812 
	C1531.739258,1404.984619 1543.118164,1401.009888 1554.037720,1396.133423 
	C1580.187256,1384.455444 1606.027710,1372.086304 1632.419434,1360.953125 
	C1642.935913,1356.516846 1646.662720,1359.532837 1645.473511,1370.789795 
	C1641.581543,1407.633789 1624.831665,1439.455933 1606.062134,1470.299072 
	C1580.693481,1511.985962 1550.081543,1549.721313 1517.146729,1585.649414 
	C1497.127441,1607.487915 1477.576904,1629.822632 1455.882446,1649.985474 
	C1436.873657,1667.652344 1418.990479,1686.528076 1398.624512,1703.790039 
	C1386.174072,1715.401123 1372.967163,1724.942993 1359.971680,1734.725098 
	C1337.127808,1751.920288 1314.055420,1768.811768 1289.701294,1785.060791 
	C1288.690796,1785.135498 1288.318481,1784.950195 1287.757690,1784.170044 
z"/>
<path fill="#E6DF01" opacity="1.000000" stroke="none" 
	d="
M846.243896,1467.793945 
	C845.160034,1467.186035 844.675293,1466.220459 844.171265,1464.690918 
	C844.151978,1464.126953 844.619629,1463.449951 844.903870,1463.153564 
	C845.188110,1462.857056 845.677490,1462.197876 845.440552,1462.536865 
	C845.203674,1462.875977 844.525635,1463.352051 844.178955,1463.578735 
	C835.643250,1465.084473 830.880798,1471.764404 825.013977,1476.374023 
	C781.088318,1510.886108 737.107239,1545.300049 689.872437,1575.275391 
	C673.550842,1585.633179 656.802979,1595.192871 638.168884,1600.928345 
	C636.577515,1601.418091 635.068787,1602.190674 633.473083,1601.037842 
	C633.726868,1600.450073 633.819092,1599.562134 634.259705,1599.326904 
	C649.601624,1591.139648 663.275452,1580.771729 676.397522,1569.334595 
	C687.985291,1559.234619 699.036194,1548.612183 709.205383,1537.237427 
	C719.816467,1525.368164 730.331726,1513.367065 740.471924,1501.037109 
	C759.062500,1478.431763 776.681641,1455.112549 794.153076,1431.664917 
	C822.952454,1393.014526 850.150269,1353.198120 879.408875,1314.874146 
	C893.936035,1295.846069 911.391724,1280.220825 931.617126,1267.738525 
	C948.869019,1257.091187 965.996399,1246.136597 985.417603,1237.891113 
	C988.586731,1239.980835 991.046387,1242.244263 993.706787,1245.096802 
	C992.416138,1251.196289 987.093445,1252.717651 983.210449,1255.539185 
	C965.994019,1268.049438 953.052063,1284.526611 940.283997,1301.151733 
	C918.203979,1329.901978 896.744812,1359.149536 873.033630,1386.598877 
	C858.772949,1403.108032 844.822144,1419.991821 827.148865,1433.268188 
	C856.407227,1423.700439 881.469543,1407.156738 905.261475,1388.283691 
	C930.026855,1368.638672 952.469910,1346.340088 976.850952,1326.269043 
	C979.396362,1324.173706 981.696899,1321.646240 985.852905,1320.880005 
	C987.043030,1321.052002 987.503601,1321.223633 988.446899,1321.958984 
	C989.540833,1323.987793 989.348450,1325.436279 988.415161,1327.495361 
	C987.990234,1328.112427 987.976135,1327.973633 988.044861,1327.961670 
	C987.600403,1328.389404 987.117310,1328.859985 986.314819,1329.728027 
	C984.936951,1331.354980 984.025940,1332.734497 982.872681,1333.867554 
	C937.543274,1378.404541 892.191711,1422.918945 846.243896,1467.793945 
z"/>
<path fill="#B2B2B2" opacity="1.000000" stroke="none" 
	d="
M1039.456909,1068.082153 
	C1073.274780,1101.494263 1106.458374,1135.207397 1139.610352,1168.951904 
	C1144.952148,1174.389282 1145.016846,1174.585693 1140.528564,1179.011963 
	C1113.238525,1205.924683 1085.888428,1232.776489 1058.532715,1259.622559 
	C1057.617676,1260.520630 1056.429688,1261.140381 1055.047729,1262.116821 
	C1024.034668,1231.078735 993.194458,1200.213745 962.004272,1168.775146 
	C965.823853,1156.999268 974.864624,1149.247314 981.923889,1140.159424 
	C1000.648682,1116.054077 1018.992859,1091.635010 1039.456909,1068.082153 
z"/>
<path fill="#D00000" opacity="1.000000" stroke="none" 
	d="
M1398.892944,1704.254150 
	C1397.863037,1698.759155 1402.444946,1696.101074 1405.868652,1693.453003 
	C1418.838135,1683.421997 1429.661865,1671.203125 1441.181152,1659.715942 
	C1448.724243,1652.193848 1457.712280,1646.323975 1464.721924,1638.243896 
	C1478.017334,1622.918701 1492.972778,1609.138306 1506.559326,1594.126831 
	C1536.593384,1560.943726 1565.787964,1526.969849 1590.792969,1489.743530 
	C1608.222046,1463.796021 1623.801758,1436.753296 1634.577515,1407.185669 
	C1639.264893,1394.323242 1641.412231,1380.949341 1643.645752,1367.577271 
	C1644.637695,1361.638794 1641.708984,1359.495605 1636.203003,1361.945923 
	C1616.179565,1370.857544 1596.192139,1379.851440 1576.223999,1388.886475 
	C1559.881592,1396.280884 1543.593628,1403.795532 1527.252441,1411.192749 
	C1526.083130,1411.722046 1524.675293,1411.725098 1522.610107,1411.963013 
	C1521.016602,1406.032593 1520.463013,1400.058472 1519.310791,1394.202148 
	C1516.736084,1381.115723 1509.890381,1370.288086 1499.778198,1360.548340 
	C1511.214844,1354.176880 1521.948730,1348.243774 1532.638916,1342.232666 
	C1568.326660,1322.165527 1603.436890,1301.136475 1637.894653,1279.018921 
	C1645.972656,1273.834106 1646.191528,1273.869995 1650.679932,1282.010132 
	C1662.268433,1303.026855 1666.158691,1325.749268 1664.850220,1349.435791 
	C1662.295898,1395.674805 1643.585205,1436.247925 1619.992676,1474.971436 
	C1597.904053,1511.226440 1571.141724,1543.906982 1542.224609,1574.858521 
	C1498.272217,1621.902954 1450.303467,1664.533813 1398.892944,1704.254150 
z"/>
<path fill="#989898" opacity="1.000000" stroke="none" 
	d="
M1258.722046,1291.415283 
	C1261.619629,1291.911621 1262.733643,1293.708496 1264.098022,1295.096191 
	C1295.591187,1327.128296 1327.067993,1359.176636 1358.531494,1391.237915 
	C1359.672241,1392.400391 1360.647217,1393.725586 1361.654785,1394.921997 
	C1359.718140,1397.948730 1356.594360,1398.552124 1353.943115,1399.775635 
	C1318.013550,1416.356445 1281.617188,1431.859619 1245.102661,1447.102417 
	C1239.256104,1449.542969 1235.737549,1448.652832 1231.435059,1444.130981 
	C1214.463257,1426.294067 1197.067871,1408.860352 1179.841064,1391.265869 
	C1177.774170,1389.154907 1175.203247,1387.335815 1175.209229,1383.172363 
	C1181.555420,1374.791016 1189.103516,1368.314087 1196.175171,1361.387207 
	C1215.887939,1342.078125 1233.209961,1320.796753 1249.381958,1298.512451 
	C1251.637451,1295.404541 1253.168335,1291.280151 1258.722046,1291.415283 
z"/>
<path fill="#FDFAFA" opacity="1.000000" stroke="none" 
	d="
M2287.583984,81.935783 
	C2291.862305,83.623283 2295.641113,84.980179 2299.015869,87.009468 
	C2302.919189,89.356621 2302.970459,91.984924 2299.376709,94.856766 
	C2294.886475,98.445061 2289.456055,100.230782 2284.079346,101.959976 
	C2264.410889,108.285622 2244.175049,112.257713 2223.893311,115.900513 
	C2166.588135,126.193062 2108.865723,133.555542 2051.062500,140.393982 
	C1995.224976,146.999817 1939.292358,152.610138 1883.277954,157.424835 
	C1871.354980,158.449661 1859.376587,158.829239 1846.640625,159.532806 
	C1858.786987,152.555176 1872.936646,148.694229 1886.791138,144.254959 
	C1952.106079,123.326447 2018.207153,105.392349 2086.049072,94.629143 
	C2146.667480,85.011932 2207.624023,79.217537 2269.085449,79.744385 
	C2275.134521,79.796242 2281.011475,80.810020 2287.583984,81.935783 
z"/>
<path fill="#B2B2B2" opacity="1.000000" stroke="none" 
	d="
M1259.124146,1290.988037 
	C1251.691040,1295.363892 1249.035522,1303.491089 1244.436279,1309.712402 
	C1225.786865,1334.939087 1204.160522,1357.375732 1181.771484,1379.171387 
	C1180.321411,1380.583130 1178.754639,1381.794800 1175.938354,1382.281738 
	C1153.747925,1360.700073 1132.296143,1338.961548 1110.353149,1316.725220 
	C1139.766846,1287.868530 1169.146973,1259.044800 1197.614014,1231.116821 
	C1218.285278,1251.110474 1238.561768,1270.722290 1259.124146,1290.988037 
z"/>
<path fill="#E7DF00" opacity="1.000000" stroke="none" 
	d="
M855.843872,1559.580566 
	C844.600403,1573.049194 832.387512,1585.229614 819.253601,1596.475708 
	C817.237122,1598.202393 815.244202,1599.967041 813.354858,1601.830322 
	C787.582703,1627.247681 760.344727,1651.085449 733.370789,1675.177490 
	C706.676270,1699.019897 679.311462,1722.172363 650.740417,1743.754761 
	C639.418335,1752.307495 628.602478,1761.819214 614.639038,1767.822266 
	C613.893738,1763.857544 616.969116,1762.017456 619.263672,1759.707642 
	C628.894714,1750.012451 638.714600,1740.502563 648.249939,1730.714966 
	C670.080383,1708.307495 689.956421,1684.215210 709.550537,1659.849854 
	C745.231506,1615.480103 777.578918,1568.740112 809.125366,1521.411743 
	C810.047241,1520.028564 810.804810,1518.535889 811.923279,1516.451904 
	C827.515991,1529.324341 840.988037,1544.682617 855.843872,1559.580566 
z"/>
<path fill="#FEFE9B" opacity="1.000000" stroke="none" 
	d="
M988.623047,1327.875977 
	C988.061096,1326.656006 988.131958,1325.199463 988.255127,1323.010620 
	C988.421509,1321.915039 988.535645,1321.551758 988.107422,1321.367310 
	C980.579102,1324.919067 975.329285,1330.547363 969.617188,1335.536499 
	C948.564636,1353.924561 928.205261,1373.105713 906.340332,1390.563843 
	C883.853271,1408.519043 859.945923,1424.079956 832.923706,1434.415283 
	C829.000061,1435.915894 825.224426,1438.318115 819.907166,1437.485107 
	C822.830444,1432.231445 827.444702,1429.430054 831.318909,1426.144165 
	C850.469788,1409.901611 866.750977,1390.972046 882.348755,1371.491211 
	C906.264221,1341.622437 929.654053,1311.332275 953.214539,1281.179932 
	C964.217896,1267.098022 977.699280,1255.872681 993.320679,1246.038574 
	C1007.543030,1257.762817 1019.465454,1271.510254 1031.752686,1283.310059 
	C1017.199036,1298.491333 1003.227539,1313.065430 988.623047,1327.875977 
z"/>
<path fill="#CF0000" opacity="1.000000" stroke="none" 
	d="
M620.797485,1054.098389 
	C619.970398,1049.078247 623.989319,1046.381226 627.308289,1044.093506 
	C637.507080,1037.063477 645.538574,1027.660034 654.846375,1019.670105 
	C673.202820,1003.912903 691.555542,988.157837 710.039185,972.541016 
	C734.620056,951.772583 760.133911,932.237000 785.982056,913.124023 
	C811.618835,894.167480 838.274841,876.747620 865.990601,860.936279 
	C891.163879,846.575500 917.071533,833.891541 944.632019,824.763733 
	C964.988892,818.021729 985.843323,814.651733 1007.309387,816.062378 
	C1020.118591,816.903992 1031.833496,821.429626 1043.633301,827.912598 
	C1036.357788,842.340149 1028.410278,856.471436 1020.925354,869.780273 
	C1018.036438,870.385437 1017.077759,869.379089 1016.183899,868.476685 
	C999.451782,851.584961 978.678955,848.159180 956.275757,850.836670 
	C931.211975,853.832214 907.925781,862.731201 885.220947,873.273254 
	C839.150452,894.664307 796.803345,922.285461 755.361389,951.369812 
	C710.388977,982.931763 667.072449,1016.665344 624.712952,1051.639648 
	C623.690674,1052.483643 622.552551,1053.187134 620.797485,1054.098389 
z"/>
<path fill="#CACACA" opacity="1.000000" stroke="none" 
	d="
M1039.861938,1067.151855 
	C1039.551758,1074.006104 1034.150879,1077.208618 1030.847900,1081.480591 
	C1008.492126,1110.395508 985.598328,1138.894409 962.266357,1167.864746 
	C949.658020,1158.158325 939.675720,1146.071655 928.320129,1135.385864 
	C925.025208,1132.285400 926.506042,1129.574707 927.871765,1126.479492 
	C936.054016,1107.936035 944.003723,1089.287598 952.377625,1070.831421 
	C960.477844,1052.978760 968.948975,1035.293213 977.377075,1017.591370 
	C978.755981,1014.695190 979.338928,1011.170288 980.506226,1010.527832 
	C1000.570923,1029.536743 1020.096619,1048.034912 1039.861938,1067.151855 
z"/>
<path fill="#F60000" opacity="1.000000" stroke="none" 
	d="
M1093.384521,1291.602051 
	C1089.623535,1296.262329 1086.330200,1297.414062 1082.617432,1292.546265 
	C1080.624878,1289.933716 1077.552124,1288.208130 1075.939453,1284.232910 
	C1080.491089,1279.815918 1085.272583,1275.225220 1090.000488,1270.580200 
	C1157.966675,1203.804565 1225.921875,1137.017456 1293.888794,1070.242432 
	C1318.603760,1045.960815 1343.342651,1021.703552 1368.071167,997.435608 
	C1369.497803,996.035583 1370.947998,994.658936 1372.353027,993.237549 
	C1374.308960,991.258850 1376.273438,990.929810 1378.353638,993.052917 
	C1379.752319,994.480469 1381.223755,995.837830 1382.599365,997.286682 
	C1387.552612,1002.503418 1387.656738,1002.627380 1382.747314,1007.531982 
	C1372.848877,1017.420898 1362.817505,1027.177124 1352.833008,1036.979858 
	C1281.752930,1106.765259 1210.672852,1176.550781 1139.587280,1246.330566 
	C1124.371826,1261.266479 1109.133789,1276.179199 1093.384521,1291.602051 
z"/>
<path fill="#F50000" opacity="1.000000" stroke="none" 
	d="
M955.999084,1402.001709 
	C987.182617,1371.384521 1017.847107,1341.248291 1048.581177,1311.183228 
	C1050.348999,1309.453735 1051.592041,1306.497803 1054.922241,1307.180054 
	C1056.336426,1307.469727 1065.053345,1316.786011 1065.040039,1317.959473 
	C1065.009277,1320.679810 1062.615601,1321.796875 1061.040405,1323.358887 
	C1047.551636,1336.736328 1033.989746,1350.040161 1020.430298,1363.346069 
	C969.760986,1413.067627 919.084229,1462.781494 868.410767,1512.498901 
	C866.983337,1513.899414 865.448730,1515.209717 864.159973,1516.728394 
	C861.529480,1519.827881 859.187073,1520.487549 856.053284,1517.084351 
	C853.593872,1514.413330 850.437439,1512.384155 846.767334,1509.400513 
	C883.857056,1472.933472 919.676147,1437.715820 955.999084,1402.001709 
z"/>
<path fill="#E8E8E8" opacity="1.000000" stroke="none" 
	d="
M1272.565430,1157.768188 
	C1279.861816,1161.691162 1281.618774,1169.002075 1284.091675,1175.716553 
	C1289.649902,1190.807861 1288.674438,1206.210449 1285.067261,1221.500000 
	C1283.484985,1228.206909 1282.311401,1235.049316 1279.383789,1241.442017 
	C1275.856934,1249.143188 1276.057983,1249.235229 1267.482422,1248.865112 
	C1267.820801,1252.558228 1272.767944,1254.095703 1271.976807,1258.965332 
	C1254.279907,1243.768188 1238.745728,1225.650146 1222.665649,1210.298706 
	C1239.334106,1192.653687 1255.664917,1175.365967 1272.565430,1157.768188 
z"/>
<path fill="#E53900" opacity="1.000000" stroke="none" 
	d="
M81.984558,2249.969482 
	C81.253830,2251.491211 80.297905,2252.755615 78.570877,2251.292480 
	C79.098610,2250.690918 79.626335,2250.089111 80.724716,2249.285156 
	C81.295372,2249.083008 81.749725,2249.677979 81.984558,2249.969482 
z"/>
<path fill="#FD0000" opacity="1.000000" stroke="none" 
	d="
M587.667725,1080.059814 
	C587.697449,1079.958252 587.637939,1080.161255 587.667725,1080.059814 
z"/>
<path fill="#E53900" opacity="1.000000" stroke="none" 
	d="
M391.948914,2227.968262 
	C391.959320,2229.108154 391.524933,2229.908936 390.522156,2229.413818 
	C390.240814,2229.274902 390.307556,2228.430908 390.542297,2227.468262 
	C390.869965,2227.026123 391.609680,2227.631592 391.948914,2227.968262 
z"/>
<path fill="#FD0000" opacity="1.000000" stroke="none" 
	d="
M587.874207,1079.883545 
	C588.290405,1079.373169 588.671875,1078.816162 589.555298,1078.151733 
	C590.057312,1078.044312 589.970398,1077.969482 589.927795,1077.929443 
	C590.191162,1078.825806 589.883423,1079.525513 588.408936,1079.890869 
	C587.757019,1079.755127 587.839417,1079.837036 587.874207,1079.883545 
z"/>
<path fill="#FEFE9B" opacity="1.000000" stroke="none" 
	d="
M986.481934,1329.926025 
	C986.355286,1329.511963 986.749634,1328.933472 987.628784,1328.152344 
	C987.743347,1328.553589 987.373108,1329.157471 986.481934,1329.926025 
z"/>
<path fill="#FD0000" opacity="1.000000" stroke="none" 
	d="
M1285.682129,1786.407959 
	C1286.090088,1787.395142 1285.572876,1788.043701 1284.691895,1787.464355 
	C1284.523438,1787.353516 1284.783936,1786.590332 1285.682129,1786.407959 
z"/>
<path fill="#FD0000" opacity="1.000000" stroke="none" 
	d="
M1286.028687,1786.055054 
	C1286.104614,1785.228760 1286.353027,1784.605713 1287.085449,1783.778931 
	C1287.831665,1783.852295 1288.094116,1784.129395 1288.709961,1784.863770 
	C1288.542969,1785.731812 1288.022583,1786.142700 1287.010010,1786.620850 
	C1286.517700,1786.687988 1286.201172,1786.258423 1286.028687,1786.055054 
z"/>
<path fill="#E78C00" opacity="1.000000" stroke="none" 
	d="
M903.574341,1520.227173 
	C903.763000,1520.678467 903.447388,1521.258179 902.642578,1521.981201 
	C902.458862,1521.534790 902.764465,1520.945190 903.574341,1520.227173 
z"/>
<path fill="#FFFFFF" opacity="1.000000" stroke="none" 
	d="
M1854.217163,279.765686 
	C1853.384399,283.220184 1855.184082,285.750946 1857.389160,288.512024 
	C1867.660400,301.373657 1875.374756,315.533051 1878.970459,331.793579 
	C1881.604004,343.702728 1879.570190,349.430573 1869.271729,356.370789 
	C1831.800659,381.622589 1793.255615,405.126495 1754.321533,428.059265 
	C1714.508423,451.509735 1674.074341,473.779999 1633.299072,495.486267 
	C1600.406982,512.996094 1567.667969,530.823547 1534.024780,546.832336 
	C1490.218384,567.677246 1446.521484,588.761292 1401.675659,607.393738 
	C1368.216919,621.294983 1334.654175,634.863770 1300.048218,645.575439 
	C1281.081177,651.446350 1261.859253,656.980957 1241.579956,656.015747 
	C1240.250122,655.952454 1238.910156,656.070496 1237.583618,655.978210 
	C1226.288086,655.192505 1222.914551,649.361206 1229.152100,640.262268 
	C1237.395752,628.237061 1245.911499,616.392334 1255.533813,605.361267 
	C1271.003662,587.626648 1286.166260,569.623718 1301.463867,551.738647 
	C1302.112671,550.980164 1302.807495,550.260437 1303.492432,549.533264 
	C1327.905151,523.612915 1351.961060,497.282288 1378.171997,473.194550 
	C1401.364136,451.881073 1424.213623,430.176849 1448.476562,409.979309 
	C1469.884644,392.158234 1491.157104,374.203918 1513.483154,357.550507 
	C1532.089722,343.671600 1551.204712,330.518341 1570.474609,317.552338 
	C1602.242920,296.176605 1635.304321,277.122345 1669.632690,260.286499 
	C1689.612183,250.487839 1710.493164,242.694809 1731.120605,234.339630 
	C1743.860718,229.179199 1756.208496,229.533569 1769.125854,232.614304 
	C1798.599976,239.643829 1824.276855,253.404221 1845.825195,274.784027 
	C1847.903564,276.846283 1849.616333,279.556458 1853.730835,279.668335 
	C1854.445557,279.578186 1854.011841,279.976959 1854.217163,279.765686 
z"/>
<path fill="#040404" opacity="1.000000" stroke="none" 
	d="
M1508.136719,762.743958 
	C1503.677612,742.466125 1500.524292,722.846008 1501.363159,702.705627 
	C1503.492798,651.565247 1522.978760,607.833923 1558.036621,571.033508 
	C1591.845459,535.544189 1633.280029,514.043518 1682.055664,508.743774 
	C1785.864380,497.464325 1863.031494,568.356812 1874.519897,655.038025 
	C1879.281860,690.967834 1873.783936,725.259216 1860.043457,759.255676 
	C1854.581909,777.449280 1845.179443,792.711243 1833.680786,806.660950 
	C1796.542603,851.715149 1749.079956,879.227356 1690.819824,883.886841 
	C1625.549194,889.106934 1571.163696,866.394958 1531.355835,812.790894 
	C1520.323120,797.934753 1511.772095,781.879944 1508.136719,762.743958 
z"/>
<path fill="#C8C8C8" opacity="1.000000" stroke="none" 
	d="
M1507.588135,762.420898 
	C1510.630005,764.447449 1510.716431,767.969360 1511.928101,770.994507 
	C1536.632690,832.678772 1581.804688,869.530151 1647.261963,879.908813 
	C1731.862549,893.322937 1816.914429,845.279419 1855.829590,767.064148 
	C1856.865601,764.981750 1857.831909,762.864624 1859.401733,760.378784 
	C1863.360474,763.298584 1860.155640,766.424866 1859.128662,769.020020 
	C1841.285400,814.109436 1811.712891,849.244202 1769.904785,874.141663 
	C1746.999146,887.782410 1722.322754,896.914368 1696.106323,899.489319 
	C1659.940796,903.041626 1624.255981,899.561279 1591.505371,881.641418 
	C1554.466919,861.375427 1528.200317,831.655579 1514.212402,791.568970 
	C1510.960693,782.250122 1507.191650,772.995117 1507.588135,762.420898 
z"/>
<path fill="#CCCCCC" opacity="1.000000" stroke="none" 
	d="
M2145.079102,689.133789 
	C2144.946533,689.220703 2145.211670,689.046936 2145.079102,689.133789 
z"/>
<path fill="#E78C00" opacity="1.000000" stroke="none" 
	d="
M377.992279,1815.988037 
	C377.585297,1816.867310 376.997772,1817.534058 375.929352,1817.407471 
	C375.733673,1817.384277 375.586945,1816.948486 375.417603,1816.703125 
	C375.970154,1816.480469 376.522675,1816.257812 377.552429,1816.031982 
	C378.029663,1816.028931 378.002411,1816.002319 377.992279,1815.988037 
z"/>
<path fill="#000000" opacity="1.000000" stroke="none" 
	d="
M665.499146,1802.040527 
	C665.037476,1803.295654 664.551147,1803.338745 664.125793,1802.542358 
	C664.020447,1802.345215 664.207703,1801.963867 664.313354,1801.687256 
	C664.654114,1800.795044 665.077637,1800.768677 665.499146,1802.040527 
z"/>
<path fill="#E78C00" opacity="1.000000" stroke="none" 
	d="
M293.687225,2066.100098 
	C293.721252,2065.884521 294.059937,2067.423828 293.687225,2066.100098 
z"/>
<path fill="#E78C00" opacity="1.000000" stroke="none" 
	d="
M294.004822,2066.004883 
	C294.149139,2065.324707 294.505249,2064.781982 295.548096,2064.197754 
	C295.659302,2064.561768 295.300629,2065.109863 294.464233,2065.824219 
	C293.986511,2065.990234 293.999786,2066.000000 294.004822,2066.004883 
z"/>
<path fill="#E78C00" opacity="1.000000" stroke="none" 
	d="
M295.994263,2063.991943 
	C296.259033,2064.168701 296.132019,2062.250244 296.344604,2063.934082 
	C296.018005,2064.013672 296.000153,2064.000000 295.994263,2063.991943 
z"/>
<path fill="#E78C00" opacity="1.000000" stroke="none" 
	d="
M627.024780,1939.034912 
	C626.952454,1939.072388 627.097046,1938.997314 627.024780,1939.034912 
z"/>
<path fill="#E78C00" opacity="1.000000" stroke="none" 
	d="
M629.721802,1934.104492 
	C629.797974,1934.057983 629.645691,1934.151001 629.721802,1934.104492 
z"/>
<path fill="#E78C00" opacity="1.000000" stroke="none" 
	d="
M630.017456,1934.025757 
	C630.188843,1933.369507 630.547424,1932.824463 631.533325,1932.190674 
	C631.794067,1932.641235 631.429871,1933.177979 630.406250,1933.770874 
	C629.950195,1933.964966 629.998962,1934.001587 630.017456,1934.025757 
z"/>
<path fill="#E78C00" opacity="1.000000" stroke="none" 
	d="
M632.018555,1932.024658 
	C632.284180,1932.088257 631.885315,1930.965332 632.253235,1931.864014 
	C631.955078,1931.966553 632.000183,1932.002319 632.018555,1932.024658 
z"/>
<path fill="#000000" opacity="1.000000" stroke="none" 
	d="
M469.953491,1815.945312 
	C470.004456,1814.868164 470.479126,1814.167603 471.411133,1814.676880 
	C471.658020,1814.811890 471.545288,1815.604858 471.213684,1816.463867 
	C470.829681,1816.831909 470.242462,1816.243896 469.953491,1815.945312 
z"/>
<path fill="#D20000" opacity="1.000000" stroke="none" 
	d="
M2161.501953,355.430542 
	C2176.435547,335.834991 2189.817871,316.067505 2201.791504,295.333923 
	C2216.105225,270.548370 2228.838379,244.992813 2240.752197,218.972031 
	C2252.098389,194.191223 2262.133789,168.895691 2272.200928,143.596512 
	C2275.012207,136.531830 2276.788086,129.056442 2281.355225,122.282585 
	C2281.229736,129.914780 2284.185059,137.031250 2284.066162,144.752762 
	C2283.815186,161.066086 2284.192383,177.389145 2283.936768,193.702316 
	C2283.713623,207.940369 2281.650879,222.046661 2280.310059,236.207138 
	C2278.873291,251.384247 2276.417725,266.361450 2274.202393,281.407776 
	C2270.676758,305.355804 2265.494385,328.977173 2259.400391,352.331116 
	C2252.788086,377.670807 2245.756104,402.948547 2237.088135,427.700195 
	C2225.343750,461.238129 2213.163574,494.611877 2198.051270,526.828491 
	C2195.404541,532.470459 2193.989258,533.045593 2189.635986,528.492126 
	C2175.165283,513.355896 2159.564453,499.371124 2145.871826,483.401794 
	C2134.632080,470.293396 2121.674561,458.650269 2109.383545,446.453491 
	C2099.252197,436.400024 2088.981689,426.486908 2077.262451,415.035858 
	C2097.205322,412.341003 2111.837402,403.236847 2125.579834,392.260437 
	C2135.764648,384.125763 2144.678467,374.710144 2153.233398,364.986450 
	C2155.839844,362.024139 2158.316895,358.882538 2161.501953,355.430542 
z"/>
<path fill="#E7DF00" opacity="1.000000" stroke="none" 
	d="
M614.060425,1768.077881 
	C613.088135,1770.178833 611.473633,1771.463135 608.644531,1772.088135 
	C607.693237,1771.816650 607.378296,1771.456543 607.537476,1770.557861 
	C609.003479,1768.327637 610.646729,1767.907471 613.069092,1767.713379 
	C613.710205,1767.669922 613.944153,1767.941528 614.060425,1768.077881 
z"/>
<path fill="#E7CB00" opacity="1.000000" stroke="none" 
	d="
M607.473022,1770.248169 
	C608.012207,1770.378174 608.012756,1770.737061 608.010742,1771.636353 
	C607.380432,1773.261597 606.411377,1773.821289 604.587402,1773.993164 
	C604.963501,1772.814819 605.948975,1771.645996 607.473022,1770.248169 
z"/>
<path fill="#E7CB00" opacity="1.000000" stroke="none" 
	d="
M604.010132,1774.011963 
	C603.732422,1773.829224 604.031067,1775.658569 603.679199,1774.096191 
	C603.978027,1773.983643 604.000671,1774.000488 604.010132,1774.011963 
z"/>
<path fill="#E7CB00" opacity="1.000000" stroke="none" 
	d="
M785.689819,1740.099121 
	C785.781006,1739.909424 785.850891,1741.799194 785.689819,1740.099121 
z"/>
<path fill="#E7CB00" opacity="1.000000" stroke="none" 
	d="
M785.976562,1739.971069 
	C786.092957,1739.265625 786.433289,1738.709473 787.546143,1738.186401 
	C787.906128,1738.746704 787.516907,1739.262939 786.498535,1739.841553 
	C786.048401,1740.039185 785.998047,1739.996460 785.976562,1739.971069 
z"/>
<path fill="#E7CB00" opacity="1.000000" stroke="none" 
	d="
M787.933594,1737.917725 
	C788.154541,1737.812622 788.294250,1736.017944 788.415588,1737.942139 
	C788.116272,1738.095581 787.990540,1737.980957 787.933594,1737.917725 
z"/>
<path fill="#E53900" opacity="1.000000" stroke="none" 
	d="
M672.006287,1626.007324 
	C672.280945,1626.146118 671.892700,1624.712891 672.270996,1625.887695 
	C671.985596,1625.988770 672.000000,1626.000000 672.006287,1626.007324 
z"/>
<path fill="#E53900" opacity="1.000000" stroke="none" 
	d="
M837.991272,1619.989624 
	C838.118958,1619.282715 838.488586,1618.747314 839.523438,1618.169922 
	C839.826416,1618.650635 839.485901,1619.203979 838.477539,1619.821777 
	C838.021301,1620.016235 838.000000,1620.000000 837.991272,1619.989624 
z"/>
<path fill="#E53900" opacity="1.000000" stroke="none" 
	d="
M840.018066,1618.024292 
	C840.198914,1617.953857 840.361816,1617.861450 840.240112,1617.868042 
	C839.955444,1617.967041 840.000061,1618.002197 840.018066,1618.024292 
z"/>
<path fill="#E78C00" opacity="1.000000" stroke="none" 
	d="
M846.410767,1461.768555 
	C846.249207,1461.180664 846.467590,1460.336426 846.685974,1459.492188 
	C848.109375,1460.093506 847.303955,1460.810303 846.410767,1461.768555 
z"/>
<path fill="#E78C00" opacity="1.000000" stroke="none" 
	d="
M843.908569,1463.889404 
	C844.041992,1463.135864 844.452881,1462.629517 845.547852,1462.155518 
	C846.030823,1462.024902 846.001526,1462.001587 845.990234,1461.987305 
	C845.847473,1462.643066 845.522156,1463.199951 844.577515,1463.885254 
	C844.151978,1464.126953 843.984985,1463.973267 843.908569,1463.889404 
z"/>
<path fill="#FEFE9B" opacity="1.000000" stroke="none" 
	d="
M816.929932,1438.799194 
	C817.153442,1438.672852 817.273132,1439.182617 817.273132,1439.182617 
	C817.273132,1439.182617 816.706482,1438.925537 816.929932,1438.799194 
z"/>
<path fill="#E6DF01" opacity="1.000000" stroke="none" 
	d="
M987.748291,1321.731445 
	C987.965698,1321.187012 988.418823,1320.486816 988.756165,1320.538818 
	C989.486206,1320.651367 989.550232,1321.267822 988.669617,1322.062012 
	C988.307373,1322.278198 987.931519,1321.916870 987.748291,1321.731445 
z"/>
<path fill="#AFAFAF" opacity="1.000000" stroke="none" 
	d="
M1571.574951,810.417053 
	C1526.577637,760.847290 1519.777588,704.651428 1544.600220,645.478821 
	C1570.225952,584.390930 1617.805542,547.439758 1683.774048,538.884094 
	C1767.273315,528.054810 1828.903564,581.338928 1842.948242,648.292786 
	C1851.766846,690.333069 1844.570312,730.175659 1821.889282,766.310120 
	C1786.718506,822.343018 1736.099487,852.718994 1669.004639,851.907776 
	C1631.470459,851.453857 1598.979736,837.374390 1571.574951,810.417053 
z"/>
<path fill="#030404" opacity="1.000000" stroke="none" 
	d="
M1796.641846,754.518372 
	C1772.744873,792.051514 1739.718872,815.049927 1696.192139,820.934998 
	C1620.292236,831.197083 1563.940186,774.563232 1561.334351,709.432922 
	C1558.753418,644.926636 1607.735229,578.006104 1681.549683,568.683105 
	C1768.046143,557.758423 1827.135254,629.587769 1814.583252,705.407349 
	C1811.714111,722.738098 1805.855957,738.810303 1796.641846,754.518372 
z"/>
<path fill="#FDFEFE" opacity="1.000000" stroke="none" 
	d="
M1601.966309,744.736206 
	C1589.179810,722.725037 1589.334473,700.053650 1595.214722,676.937439 
	C1597.593994,667.584106 1601.529297,658.845581 1607.280273,650.306763 
	C1611.081909,648.088379 1614.456787,646.749390 1618.238159,646.835205 
	C1630.881104,647.122131 1643.470703,644.920776 1656.004028,645.048889 
	C1684.264404,645.337708 1712.377319,641.663574 1740.628906,642.690552 
	C1745.962524,642.884399 1751.217896,641.942078 1756.501953,641.360779 
	C1762.427856,640.708862 1768.442139,639.862671 1774.870117,643.480347 
	C1787.748413,664.956909 1788.355835,687.245667 1783.006226,710.090393 
	C1780.742920,719.755371 1777.026733,728.935547 1771.126221,737.771851 
	C1767.764771,740.106140 1764.649902,741.298950 1761.250732,741.135620 
	C1744.646362,740.337463 1728.218506,743.132324 1711.652222,743.398254 
	C1680.548340,743.897400 1649.448853,744.815491 1618.402466,746.989746 
	C1613.130371,747.358948 1607.777710,747.885986 1601.966309,744.736206 
z"/>
<path fill="#80E3FC" opacity="1.000000" stroke="none" 
	d="
M1601.270508,745.017944 
	C1656.902832,741.412781 1712.752563,739.500427 1769.591553,738.069580 
	C1753.459106,767.585999 1727.890381,784.765503 1694.523193,790.559875 
	C1655.990601,797.251282 1620.199829,779.971497 1601.270508,745.017944 
z"/>
<path fill="#80E3FC" opacity="1.000000" stroke="none" 
	d="
M1775.590698,643.321899 
	C1752.831909,644.961304 1729.947388,645.500183 1707.117065,646.584045 
	C1688.890259,647.449402 1670.615479,646.987122 1652.470947,648.479126 
	C1638.219238,649.651062 1624.000000,649.748108 1608.812744,650.008118 
	C1630.264282,609.061523 1684.268066,587.642883 1727.850098,602.555664 
	C1748.837769,609.737244 1764.673950,623.273743 1775.590698,643.321899 
z"/>
</svg>